<svg width="16" height="17" viewBox="0 0 16 17" fill="none" xmlns="http://www.w3.org/2000/svg">
<circle cx="8" cy="8.56033" r="8" fill="#C1C1C1"/>
<path fillRule="evenodd" clipRule="evenodd" d="M8.75 5.56033C8.75 5.14612 8.41421 4.81033 8 4.81033C7.58579 4.81033 7.25 5.14612 7.25 5.56033V7.81033H5C4.58579 7.81033 4.25 8.14612 4.25 8.56033C4.25 8.97455 4.58579 9.31033 5 9.31033H7.25V11.5603C7.25 11.9745 7.58579 12.3103 8 12.3103C8.41421 12.3103 8.75 11.9745 8.75 11.5603V9.31033H11C11.4142 9.31033 11.75 8.97455 11.75 8.56033C11.75 8.14612 11.4142 7.81033 11 7.81033H8.75V5.56033Z" fill="white"/>
</svg>
