<svg width="18" height="20" viewBox="0 0 18 20" fill="none" xmlns="http://www.w3.org/2000/svg">
<path fillRule="evenodd" clipRule="evenodd" d="M12.325 5.3291C12.325 7.09641 10.8923 8.5291 9.12497 8.5291C7.35766 8.5291 5.92497 7.09641 5.92497 5.3291C5.92497 3.56179 7.35766 2.1291 9.12497 2.1291C10.8923 2.1291 12.325 3.56179 12.325 5.3291ZM11.0505 9.39748C12.5725 8.67586 13.625 7.12539 13.625 5.3291C13.625 2.84382 11.6103 0.829102 9.12497 0.829102C6.63969 0.829102 4.62497 2.84382 4.62497 5.3291C4.62497 7.1254 5.67746 8.67587 7.1994 9.39748C3.4186 10.2704 0.599976 13.6581 0.599976 17.7041V18.9541C0.599976 19.3131 0.89099 19.6041 1.24998 19.6041C1.60896 19.6041 1.89998 19.3131 1.89998 18.9541V17.7041C1.89998 13.7139 5.13472 10.4791 9.12498 10.4791C13.1152 10.4791 16.35 13.7139 16.35 17.7041V18.9541C16.35 19.3131 16.641 19.6041 17 19.6041C17.359 19.6041 17.65 19.3131 17.65 18.9541V17.7041C17.65 13.6581 14.8313 10.2704 11.0505 9.39748Z" fill="#C1C1C1"/>
</svg>
